<svg width="89" height="23" viewBox="0 0 89 23" fill="none" xmlns="http://www.w3.org/2000/svg">
<circle cx="7" cy="10" r="7" fill="#FF6543"/>
<circle cx="20.3263" cy="16.3263" r="4.32633" fill="#74BCB8"/>
<circle cx="18.6731" cy="5.67305" r="2.67305" fill="#F4B950"/>
<path d="M32.4773 8.27273V9.86364H27.3182V8.27273H32.4773ZM28.608 17V7.44886C28.608 6.86174 28.7292 6.37311 28.9716 5.98295C29.2178 5.5928 29.5473 5.30114 29.9602 5.10795C30.3731 4.91477 30.8314 4.81818 31.3352 4.81818C31.6913 4.81818 32.0076 4.84659 32.2841 4.90341C32.5606 4.96023 32.7652 5.01136 32.8977 5.05682L32.4886 6.64773C32.4015 6.62121 32.2917 6.5947 32.1591 6.56818C32.0265 6.53788 31.8788 6.52273 31.7159 6.52273C31.3333 6.52273 31.0625 6.61553 30.9034 6.80114C30.7481 6.98295 30.6705 7.24432 30.6705 7.58523V17H28.608ZM38.8506 13.3295V8.27273H40.9074V17H38.9131V15.4489H38.8222C38.6252 15.9375 38.3013 16.3371 37.8506 16.6477C37.4036 16.9583 36.8525 17.1136 36.1972 17.1136C35.6252 17.1136 35.1195 16.9867 34.6801 16.733C34.2445 16.4754 33.9036 16.1023 33.6574 15.6136C33.4112 15.1212 33.2881 14.5265 33.2881 13.8295V8.27273H35.3449V13.5114C35.3449 14.0644 35.4964 14.5038 35.7994 14.8295C36.1025 15.1553 36.5002 15.3182 36.9926 15.3182C37.2956 15.3182 37.5892 15.2443 37.8733 15.0966C38.1574 14.9489 38.3903 14.7292 38.5722 14.4375C38.7578 14.142 38.8506 13.7727 38.8506 13.3295ZM44.2793 11.8864V17H42.2224V8.27273H44.1884V9.75568H44.2906C44.4914 9.26705 44.8115 8.87879 45.2509 8.59091C45.694 8.30303 46.2414 8.15909 46.8929 8.15909C47.4952 8.15909 48.0198 8.28788 48.4668 8.54545C48.9175 8.80303 49.266 9.17614 49.5122 9.66477C49.7622 10.1534 49.8853 10.7462 49.8815 11.4432V17H47.8247V11.7614C47.8247 11.178 47.6732 10.7216 47.3702 10.392C47.0709 10.0625 46.6562 9.89773 46.1259 9.89773C45.766 9.89773 45.4459 9.97727 45.1656 10.1364C44.8891 10.2917 44.6713 10.517 44.5122 10.8125C44.3569 11.108 44.2793 11.4659 44.2793 11.8864Z" fill="black"/>
<path d="M56.0227 8.27273V9.40909H51.5V8.27273H56.0227ZM52.8182 6.18182H54.1591V14.5C54.1591 14.8788 54.214 15.1629 54.3239 15.3523C54.4375 15.5379 54.5814 15.6629 54.7557 15.7273C54.9337 15.7879 55.1212 15.8182 55.3182 15.8182C55.4659 15.8182 55.5871 15.8106 55.6818 15.7955C55.7765 15.7765 55.8523 15.7614 55.9091 15.75L56.1818 16.9545C56.0909 16.9886 55.964 17.0227 55.8011 17.0568C55.6383 17.0947 55.4318 17.1136 55.1818 17.1136C54.803 17.1136 54.4318 17.0322 54.0682 16.8693C53.7083 16.7064 53.4091 16.4583 53.1705 16.125C52.9356 15.7917 52.8182 15.3712 52.8182 14.8636V6.18182ZM59.808 17.2045C59.2549 17.2045 58.753 17.1004 58.3023 16.892C57.8515 16.6799 57.4936 16.375 57.2284 15.9773C56.9633 15.5758 56.8307 15.0909 56.8307 14.5227C56.8307 14.0227 56.9292 13.6174 57.1261 13.3068C57.3231 12.9924 57.5864 12.7462 57.9159 12.5682C58.2455 12.3902 58.6091 12.2576 59.0068 12.1705C59.4083 12.0795 59.8117 12.0076 60.217 11.9545C60.7473 11.8864 61.1773 11.8352 61.5068 11.8011C61.8402 11.7633 62.0826 11.7008 62.2341 11.6136C62.3894 11.5265 62.467 11.375 62.467 11.1591V11.1136C62.467 10.553 62.3136 10.1174 62.0068 9.80682C61.7038 9.49621 61.2436 9.34091 60.6261 9.34091C59.986 9.34091 59.4841 9.48106 59.1205 9.76136C58.7568 10.0417 58.5011 10.3409 58.3534 10.6591L57.0807 10.2045C57.308 9.67424 57.611 9.26136 57.9898 8.96591C58.3723 8.66667 58.789 8.45833 59.2398 8.34091C59.6943 8.2197 60.1413 8.15909 60.5807 8.15909C60.861 8.15909 61.183 8.19318 61.5466 8.26136C61.914 8.32576 62.2682 8.46023 62.6091 8.66477C62.9538 8.86932 63.2398 9.17803 63.467 9.59091C63.6943 10.0038 63.808 10.5568 63.808 11.25V17H62.467V15.8182H62.3989C62.308 16.0076 62.1564 16.2102 61.9443 16.4261C61.7322 16.642 61.45 16.8258 61.0977 16.9773C60.7455 17.1288 60.3155 17.2045 59.808 17.2045ZM60.0125 16C60.5428 16 60.9898 15.8958 61.3534 15.6875C61.7208 15.4792 61.9973 15.2102 62.183 14.8807C62.3723 14.5511 62.467 14.2045 62.467 13.8409V12.6136C62.4102 12.6818 62.2852 12.7443 62.092 12.8011C61.9027 12.8542 61.683 12.9015 61.433 12.9432C61.1867 12.9811 60.9462 13.0152 60.7114 13.0455C60.4803 13.072 60.2928 13.0947 60.1489 13.1136C59.8004 13.1591 59.4746 13.233 59.1716 13.3352C58.8723 13.4337 58.6299 13.5833 58.4443 13.7841C58.2625 13.9811 58.1716 14.25 58.1716 14.5909C58.1716 15.0568 58.3439 15.4091 58.6886 15.6477C59.0371 15.8826 59.4784 16 60.0125 16ZM71.6372 10.2273L70.4327 10.5682C70.3569 10.3674 70.2452 10.1723 70.0974 9.98295C69.9535 9.78977 69.7565 9.63068 69.5065 9.50568C69.2565 9.38068 68.9365 9.31818 68.5463 9.31818C68.0122 9.31818 67.5671 9.44129 67.2111 9.6875C66.8588 9.92992 66.6827 10.2386 66.6827 10.6136C66.6827 10.947 66.8039 11.2102 67.0463 11.4034C67.2887 11.5966 67.6675 11.7576 68.1827 11.8864L69.4781 12.2045C70.2584 12.3939 70.8399 12.6837 71.2224 13.0739C71.605 13.4602 71.7963 13.9583 71.7963 14.5682C71.7963 15.0682 71.6524 15.5152 71.3645 15.9091C71.0804 16.303 70.6827 16.6136 70.1713 16.8409C69.6599 17.0682 69.0652 17.1818 68.3872 17.1818C67.4971 17.1818 66.7603 16.9886 66.177 16.6023C65.5937 16.2159 65.2243 15.6515 65.069 14.9091L66.3418 14.5909C66.463 15.0606 66.6921 15.4129 67.0293 15.6477C67.3702 15.8826 67.8152 16 68.3645 16C68.9895 16 69.4857 15.8674 69.8531 15.6023C70.2243 15.3333 70.4099 15.0114 70.4099 14.6364C70.4099 14.3333 70.3039 14.0795 70.0918 13.875C69.8796 13.6667 69.5539 13.5114 69.1145 13.4091L67.6599 13.0682C66.8607 12.8788 66.2736 12.5852 65.8986 12.1875C65.5274 11.786 65.3418 11.2841 65.3418 10.6818C65.3418 10.1894 65.48 9.75379 65.7565 9.375C66.0368 8.99621 66.4175 8.69886 66.8986 8.48295C67.3834 8.26705 67.9327 8.15909 68.5463 8.15909C69.4099 8.15909 70.088 8.34848 70.5804 8.72727C71.0766 9.10606 71.4289 9.60606 71.6372 10.2273ZM74.2648 13.8182L74.242 12.1591H74.5148L78.333 8.27273H79.992L75.9239 12.3864H75.8102L74.2648 13.8182ZM73.0148 17V5.36364H74.3557V17H73.0148ZM78.5602 17L75.1511 12.6818L76.1057 11.75L80.2648 17H78.5602ZM81.7815 20.2727C81.5543 20.2727 81.3516 20.2538 81.1736 20.2159C80.9955 20.1818 80.8724 20.1477 80.8043 20.1136L81.1452 18.9318C81.4709 19.0152 81.7588 19.0455 82.0088 19.0227C82.2588 19 82.4804 18.8883 82.6736 18.6875C82.8705 18.4905 83.0505 18.1705 83.2134 17.7273L83.4634 17.0455L80.2361 8.27273H81.6906L84.0997 15.2273H84.1906L86.5997 8.27273H88.0543L84.3497 18.2727C84.183 18.7235 83.9766 19.0966 83.7304 19.392C83.4842 19.6913 83.1982 19.9129 82.8724 20.0568C82.5505 20.2008 82.1868 20.2727 81.7815 20.2727Z" fill="black"/>
</svg>
